<?xml version="1.0" encoding="iso-8859-1"?>
<!-- Uploaded to: SVG Repo, www.svgrepo.com, Generator: SVG Repo Mixer Tools -->
<svg height="800px" width="800px" version="1.1" id="Capa_1" xmlns="http://www.w3.org/2000/svg" xmlns:xlink="http://www.w3.org/1999/xlink" 
	 viewBox="0 0 58.129 58.129" xml:space="preserve">
<g>
	<path style="fill:#010002;" d="M10.61,30.501c-0.398-0.626-0.609-1.352-0.609-2.097c0-0.191,0.014-0.381,0.04-0.565
		c0.087-0.596-0.372-1.212-1.092-1.464l-3.946-1.382c-0.766-0.263-1.623,0.195-1.797,0.96c-0.184,0.799-0.275,1.624-0.275,2.452
		c0,2.562,0.9,5.057,2.537,7.021c0.256,0.308,0.634,0.484,1.036,0.484c0.373,0,0.741-0.153,1.009-0.422l2.952-2.951
		C10.984,32.019,11.043,31.182,10.61,30.501z M9.782,31.855l-2.953,2.952c-0.088,0.088-0.206,0.138-0.325,0.138
		c-0.067,0-0.196-0.018-0.295-0.137c-1.492-1.791-2.313-4.065-2.313-6.403c0-0.756,0.084-1.508,0.25-2.236
		c0.047-0.201,0.226-0.29,0.384-0.29c0.052,0,0.104,0.009,0.155,0.026l3.945,1.382c0.344,0.12,0.465,0.356,0.456,0.416
		c-0.032,0.229-0.05,0.464-0.05,0.702c0,0.93,0.262,1.833,0.76,2.616C9.954,31.269,10.001,31.636,9.782,31.855z M18.036,31.88
		c-0.491-0.519-1.376-0.584-2.025-0.171c-0.779,0.496-1.74,0.699-2.64,0.571l-0.132-0.01c-0.539,0-1.08,0.456-1.313,1.107
		l-1.411,3.937c-0.139,0.381-0.107,0.799,0.084,1.146c0.184,0.336,0.492,0.567,0.867,0.652c0.798,0.182,1.621,0.274,2.447,0.274
		c2.505,0,4.953-0.864,6.896-2.435c0.297-0.238,0.474-0.581,0.5-0.965c0.025-0.396-0.119-0.79-0.396-1.082
		C20.913,34.904,18.036,31.88,18.036,31.88z M20.204,36.204c-2.357,1.904-5.587,2.638-8.525,1.97
		c-0.131-0.03-0.199-0.112-0.234-0.177c-0.058-0.104-0.066-0.234-0.021-0.357l1.412-3.936c0.115-0.322,0.339-0.468,0.4-0.468
		c1.117,0.157,2.32-0.093,3.295-0.712c0.228-0.146,0.526-0.272,0.807,0.021l2.877,3.026c0.093,0.097,0.141,0.226,0.132,0.354
		C20.341,36.005,20.312,36.117,20.204,36.204z M20.327,21.352l-2.866,3.047c-0.489,0.521-0.554,1.363-0.157,2.051
		c0.342,0.591,0.522,1.267,0.522,1.955c0,0.19-0.013,0.378-0.04,0.562c-0.084,0.594,0.376,1.208,1.094,1.461l3.942,1.393
		c0.155,0.055,0.315,0.082,0.477,0.082c0.639,0,1.182-0.428,1.321-1.038c0.184-0.803,0.276-1.629,0.276-2.459
		c0-2.562-0.901-5.057-2.537-7.021C21.864,20.789,20.87,20.774,20.327,21.352z M23.681,30.649c-0.061,0.266-0.332,0.333-0.537,0.26
		l-3.942-1.392c-0.339-0.12-0.468-0.357-0.46-0.413c0.033-0.229,0.051-0.461,0.051-0.699c0-0.858-0.227-1.702-0.652-2.438
		c-0.18-0.311-0.169-0.7,0.024-0.906l2.865-3.046c0.085-0.091,0.2-0.144,0.314-0.144c0.076,0,0.185,0.023,0.274,0.131
		c1.492,1.792,2.314,4.065,2.314,6.403C23.933,29.163,23.847,29.916,23.681,30.649z M9.922,24.823
		c0.284,0.284,0.679,0.441,1.109,0.441c0.325,0,0.648-0.088,0.933-0.252c0.769-0.443,1.711-0.605,2.559-0.473l0.169,0.014
		c0.571,0,1.124-0.446,1.344-1.086l1.361-3.951c0.133-0.383,0.098-0.801-0.094-1.147c-0.186-0.336-0.492-0.568-0.865-0.655
		c-3.238-0.762-6.788,0.032-9.389,2.118c-0.301,0.24-0.477,0.583-0.498,0.966c-0.021,0.395,0.131,0.785,0.416,1.07
		C6.967,21.868,9.922,24.823,9.922,24.823z M7.653,20.584c1.794-1.438,3.959-2.198,6.261-2.198c0.777,0,1.552,0.09,2.305,0.267
		c0.133,0.031,0.204,0.116,0.24,0.184c0.061,0.107,0.07,0.241,0.027,0.365l-1.361,3.95c-0.102,0.296-0.316,0.434-0.448,0.434
		c-0.001,0-0.002,0-0.003,0c-1.065-0.164-2.231,0.038-3.191,0.591c-0.245,0.14-0.582,0.259-0.877-0.036l-2.955-2.955
		c-0.092-0.092-0.141-0.214-0.134-0.335C7.52,20.775,7.547,20.669,7.653,20.584z M56.843,11.984
		c-2.361-1.399-5.021-2.109-7.906-2.109c-3.426,0-9.002,1.037-16.123,5.979l-0.171,0.119c-0.89,0.611-3.668,1.983-7.679,3.77
		c-0.107,0-0.217-0.057-0.262-0.112c-2.658-3.266-6.59-5.138-10.789-5.138C6.241,14.493,0,20.733,0,28.405
		C0,36.078,6.241,42.32,13.913,42.32c4.046,0,7.887-1.768,10.537-4.85c0.187-0.216,0.621-0.443,0.861-0.45
		c0.715-0.02,1.648-0.036,2.728-0.036c4.037,0,11.455,0.253,15.777,1.943c5.234,2.047,10.13,6.832,11.994,8.795
		c0.332,0.353,0.699,0.531,1.088,0.531c0.592,0,1.231-0.454,1.231-1.452V14.298C58.129,13.413,57.576,12.417,56.843,11.984z
		 M56.198,45.361c-2.404-2.385-6.872-6.351-11.679-8.23c-4.387-1.716-11.383-2.076-16.48-2.076c-1.101,0-2.053,0.018-2.781,0.037
		c-0.776,0.022-1.731,0.494-2.271,1.122c-2.284,2.654-5.592,4.177-9.074,4.177c-6.607,0-11.982-5.376-11.982-11.984
		c0-6.607,5.375-11.982,11.982-11.982c3.616,0,7.002,1.613,9.291,4.427c0.607,0.744,1.748,1.031,2.607,0.646
		c2.383-1.072,6.582-3.01,7.925-3.932l0.178-0.125c6.709-4.656,11.874-5.634,15.022-5.634c2.531,0,4.861,0.618,6.922,1.84
		c0.142,0.082,0.34,0.436,0.34,0.653C56.198,14.299,56.198,45.361,56.198,45.361z M13.743,26.334c1.112,0,2.013,0.901,2.013,2.013
		s-0.901,2.013-2.013,2.013s-2.013-0.901-2.013-2.013S12.631,26.334,13.743,26.334z M52.231,17.012l0.354-0.007v-3.429l-0.369,0.007
		c-0.941,0.018-1.929,0.106-2.934,0.264l-0.306,0.048v3.438l0.417-0.065C50.365,17.115,51.321,17.03,52.231,17.012z M49.7,14.517
		c0.737-0.106,1.461-0.172,2.163-0.2v1.982c-0.704,0.024-1.428,0.089-2.163,0.19V14.517z M47.389,17.468l0.285-0.061v-3.446
		l-0.438,0.095c-0.923,0.199-1.877,0.456-2.831,0.766l-0.251,0.079v3.466l0.472-0.153C45.56,17.914,46.49,17.663,47.389,17.468z
		 M44.879,15.43c0.695-0.219,1.392-0.409,2.073-0.568v1.963c-0.682,0.153-1.378,0.34-2.073,0.552
		C44.879,17.377,44.879,15.43,44.879,15.43z M42.817,18.519l0.236-0.089v-3.478l-0.488,0.184c-0.923,0.345-1.86,0.738-2.79,1.171
		l-0.21,0.098v3.503l0.516-0.239C40.992,19.243,41.914,18.856,42.817,18.519z M40.288,16.866c0.682-0.311,1.362-0.602,2.04-0.865
		v1.93c-0.676,0.257-1.358,0.541-2.04,0.847V16.866z M38.818,20.153l0.196-0.101v-3.517l-0.526,0.268
		c-0.791,0.405-1.574,0.836-2.328,1.281l-0.179,0.105v3.546l0.546-0.322C37.268,20.975,38.038,20.551,38.818,20.153z M36.703,18.604
		c0.52-0.303,1.051-0.599,1.587-0.883v1.889c-0.534,0.277-1.065,0.566-1.587,0.862V18.604z M34.187,22.583
		c0.295-0.2,0.62-0.411,0.971-0.632l0.167-0.106v-3.56l-0.553,0.349c-0.356,0.224-0.688,0.441-0.991,0.646
		c-0.334,0.227-0.661,0.437-0.977,0.63l-0.173,0.105v3.554l0.552-0.336C33.505,23.034,33.842,22.817,34.187,22.583z M33.355,20.42
		c0.27-0.169,0.548-0.349,0.832-0.541c0.132-0.089,0.271-0.183,0.414-0.276v1.844c-0.291,0.185-0.564,0.366-0.82,0.537
		c-0.145,0.098-0.286,0.192-0.426,0.283C33.355,22.267,33.355,20.42,33.355,20.42z M31.852,23.819l0.186-0.104v-3.533l-0.536,0.299
		c-0.648,0.359-1.293,0.677-1.914,0.941l-0.221,0.093v3.492l0.504-0.215C30.515,24.519,31.183,24.19,31.852,23.819z M30.089,21.992
		c0.403-0.177,0.812-0.374,1.225-0.588v1.884c-0.412,0.224-0.821,0.429-1.225,0.616C30.089,23.904,30.089,21.992,30.089,21.992z
		 M28.547,25.257l0.246-0.083v-3.469l-0.478,0.16c-1.141,0.387-1.81,0.45-1.816,0.451l-0.33,0.029v3.43l0.394-0.033
		C26.593,25.74,27.314,25.673,28.547,25.257z M26.894,22.99c0.255-0.044,0.654-0.13,1.176-0.286v1.948
		c-0.509,0.161-0.908,0.254-1.176,0.307V22.99z M53.874,37.21l-0.41-0.302l-0.921,2.954l0.214,0.152
		c1.264,0.901,2.028,1.547,2.036,1.555l0.596,0.505V38.4l-0.126-0.108C55.242,38.275,54.747,37.854,53.874,37.21z M54.665,40.537
		c-0.312-0.246-0.744-0.575-1.275-0.958l0.462-1.481c0.389,0.294,0.665,0.517,0.813,0.639V40.537z M52.497,36.404
		c-1.629-1.204-2.111-1.503-2.616-1.789l-0.369-0.213l-1.077,2.891l0.271,0.15c0.55,0.308,1.067,0.619,2.743,1.849l0.426,0.312
		l0.82-3.053C52.695,36.551,52.497,36.404,52.497,36.404z M51.451,38.397c-1.142-0.829-1.676-1.173-2.12-1.433l0.56-1.505
		c0.349,0.214,0.872,0.566,1.977,1.38C51.868,36.84,51.451,38.397,51.451,38.397z M48.486,34.086c-0.57-0.312-1.17-0.62-1.794-0.918
		l-0.41-0.197l-0.683,3.092l0.258,0.123c0.542,0.26,1.066,0.528,1.572,0.801l0.385,0.207l0.934-2.965
		C48.748,34.229,48.486,34.086,48.486,34.086z M47.386,36.145c-0.313-0.164-0.633-0.325-0.958-0.485l0.362-1.639
		c0.373,0.185,0.735,0.371,1.088,0.561L47.386,36.145z M45.434,32.537c-0.562-0.252-1.141-0.492-1.73-0.717l-0.388-0.146
		l-0.719,3.059l0.297,0.112c0.557,0.211,1.106,0.439,1.641,0.68l0.393,0.177l0.784-3.041C45.712,32.661,45.434,32.537,45.434,32.537
		z M44.441,34.693c-0.327-0.142-0.659-0.278-0.995-0.41l0.388-1.636c0.345,0.138,0.687,0.279,1.024,0.427
		C44.858,33.074,44.441,34.693,44.441,34.693z M39.842,30.935l-0.379-0.044l-0.215,3.137l0.339,0.043
		c0.758,0.095,1.432,0.208,2,0.337l0.371,0.084l0.542-3.102l-0.336-0.076C41.511,31.166,40.728,31.039,39.842,30.935z
		 M41.375,33.624c-0.412-0.083-0.867-0.159-1.358-0.226l0.116-1.697c0.564,0.072,1.077,0.157,1.534,0.248L41.375,33.624z
		 M36.432,30.669l-0.387-0.018l0.055,3.142l0.336,0.02c0.633,0.036,1.257,0.082,1.856,0.138l0.359,0.033l0.298-3.126l-0.362-0.031
		C37.844,30.76,37.213,30.708,36.432,30.669z M38,33.199c-0.388-0.033-0.787-0.062-1.188-0.088l-0.03-1.696
		c0.481,0.028,0.913,0.061,1.376,0.101L38,33.199z M35.11,30.63c-0.774-0.027-1.548-0.044-2.304-0.052l-0.384-0.004l0.159,3.117
		l0.338,0.005c0.773,0.011,1.441,0.029,2.228,0.062l0.387,0.017l-0.084-3.133C35.45,30.642,35.11,30.63,35.11,30.63z M33.269,32.979
		l-0.086-1.671c0.517,0.008,1.038,0.019,1.562,0.035l0.045,1.679C34.267,33,33.784,32.988,33.269,32.979z M31.538,30.573
		c-0.624,0-1.17,0.017-1.692,0.032l-1.117,0.027l-0.235,3.08l0.397-0.008c0.71-0.013,1.495-0.021,2.325-0.021l0.821,0.002
		l-0.155-3.113L31.538,30.573L31.538,30.573z M31.216,32.96c-0.683,0-1.335,0.006-1.941,0.015l0.126-1.634l0.466-0.013
		c0.418-0.012,0.852-0.024,1.327-0.029l0.083,1.661H31.216z M25.843,30.703l-0.289,0.015l-0.543,3.118l0.453-0.021
		c0.002-0.001,0.844-0.044,2.166-0.081l0.31-0.009l0.391-3.111l-0.422,0.014C26.642,30.662,25.843,30.703,25.843,30.703z
		 M27.3,33.02c-0.608,0.018-1.096,0.036-1.42,0.05l0.287-1.657c0.276-0.013,0.738-0.031,1.341-0.05L27.3,33.02z M39.486,24.755
		c0.161-0.016,0.308-0.015,0.441-0.004c0.243,0.02,0.465-0.101,0.502-0.329c0.037-0.228-0.179-0.502-0.496-0.519
		c-0.167-0.008-0.36-0.005-0.573,0.017c-1.37,0.137-2.384,1.102-2.229,2.647c0.13,1.289,1.035,2.188,2.601,2.031
		c0.215-0.022,0.414-0.059,0.583-0.104c0.317-0.081,0.501-0.386,0.438-0.604c-0.064-0.218-0.291-0.303-0.525-0.241
		c-0.139,0.037-0.287,0.065-0.434,0.08c-0.906,0.092-1.5-0.424-1.593-1.331C38.097,25.39,38.68,24.836,39.486,24.755z
		 M42.339,24.741c-0.03-0.532-0.286-0.951-0.57-0.934c-0.282,0.018-0.486,0.462-0.457,0.994l0.156,2.619
		c0.031,0.531,0.286,0.95,0.568,0.934c0.284-0.018,0.488-0.462,0.456-0.994L42.339,24.741z M46.595,28.263
		c0.298,0.001,0.541-0.43,0.541-0.963l0.007-2.627c0-0.532-0.211-0.964-0.472-0.965c-0.262-0.001-0.475,0.295-0.475,0.661
		c0,0.365-0.002,0.661-0.002,0.661c0,0.333,0.004,0.649,0.015,0.953c0.017,0.527-0.093,0.594-0.297,0.162
		c-0.126-0.268-0.258-0.53-0.394-0.771l-0.472-0.837c-0.26-0.461-0.74-0.836-1.073-0.837c-0.33,0-0.603,0.431-0.603,0.964
		l-0.008,2.626c0,0.533,0.212,0.965,0.472,0.966c0.262,0.001,0.475-0.307,0.475-0.685c0.002-0.379,0.002-0.687,0.002-0.687
		c0-0.364-0.002-0.705-0.005-1.028c-0.006-0.533,0.139-0.593,0.359-0.149c0.138,0.277,0.28,0.549,0.416,0.794l0.505,0.914
		C45.846,27.884,46.295,28.263,46.595,28.263z M50.252,24.871c0.486,0.061,0.902-0.08,0.933-0.311
		c0.027-0.231-0.379-0.471-0.906-0.536l-0.865-0.106c-0.531-0.065-1.012,0.311-1.076,0.84l-0.321,2.601
		c-0.063,0.529,0.312,1.011,0.841,1.076l0.96,0.117c0.526,0.065,0.979-0.069,1.008-0.301c0.029-0.231-0.364-0.47-0.876-0.533
		c-0.513-0.063-0.898-0.354-0.861-0.649c0.035-0.297,0.438-0.49,0.896-0.434c0.458,0.055,0.851-0.085,0.884-0.315
		c0.027-0.229-0.323-0.461-0.782-0.517c-0.458-0.056-0.804-0.312-0.772-0.57C49.345,24.971,49.766,24.81,50.252,24.871z"/>
</g>
</svg>